<!--?xml version="1.0" encoding="utf-8"?-->
<!-- Generator: Adobe Illustrator 18.1.1, SVG Export Plug-In . SVG Version: 6.00 Build 0)  -->

<svg version="1.1" id="_x32_" xmlns="http://www.w3.org/2000/svg" xmlns:xlink="http://www.w3.org/1999/xlink" x="0px" y="0px" viewBox="0 0 512 512" style="width: 256px; height: 256px; opacity: 1;" xml:space="preserve">
<style type="text/css">
	.st0{fill:#4B4B4B;}
</style>
<g>
	<path class="st0" d="M259.242,131.758c22.924,0,41.512-18.58,41.512-41.504c0-22.924-18.588-41.504-41.512-41.504
		c-22.908,0-41.496,18.581-41.496,41.504C217.745,113.178,236.333,131.758,259.242,131.758z" style="fill: rgb(60, 111, 153);"></path>
	<path class="st0" d="M259.242,142.657c-37.242,0-48.004,40.683-48.004,78.939h96.031
		C307.269,183.34,296.507,142.657,259.242,142.657z" style="fill: rgb(60, 111, 153);"></path>
	<path class="st0" d="M47.295,390.035c-10.915-10.94-17.623-25.876-17.631-42.47v-61.79H0v61.79
		c0.024,49.54,40.225,89.733,89.757,89.773h40.548v-29.664H89.757C73.171,407.658,58.235,400.95,47.295,390.035z" style="fill: rgb(60, 111, 153);"></path>
	<path class="st0" d="M85.928,203.096c21.637,0,39.148-17.511,39.148-39.156c0-21.614-17.511-39.148-39.148-39.148
		c-21.621,0-39.148,17.535-39.148,39.148C46.78,185.585,64.308,203.096,85.928,203.096z" style="fill: rgb(60, 111, 153);"></path>
	<path class="st0" d="M179.168,336.489h-54.929v-81.762c0-21.162-17.14-38.31-38.311-38.31c-21.138,0-38.303,17.148-38.303,38.31
		v93.144c0,21.154,17.148,38.32,38.303,38.32c2.872,0,70.026-0.201,70.026-0.201l3.676,56.682
		c0.258,11.614,9.885,20.816,21.492,20.575c11.622-0.257,20.832-9.886,20.567-21.5l2.228-80.507
		C203.918,347.549,192.842,336.489,179.168,336.489z" style="fill: rgb(60, 111, 153);"></path>
	<path class="st0" d="M482.335,285.775v61.79c-0.008,16.594-6.716,31.53-17.631,42.47c-10.94,10.915-25.868,17.623-42.462,17.639
		h-40.539v29.664h40.539c49.532-0.04,89.733-40.233,89.758-89.773v-61.79H482.335z" style="fill: rgb(60, 111, 153);"></path>
	<path class="st0" d="M426.071,203.096c21.621,0,39.148-17.511,39.148-39.156c0-21.614-17.528-39.148-39.148-39.148
		c-21.636,0-39.147,17.535-39.147,39.148C386.924,185.585,404.434,203.096,426.071,203.096z" style="fill: rgb(60, 111, 153);"></path>
	<path class="st0" d="M464.374,347.87v-93.144c0-21.162-17.165-38.31-38.303-38.31c-21.17,0-38.31,17.148-38.31,38.31v81.762h-54.93
		c-13.665,0-24.742,11.06-24.742,24.75l2.228,80.507c-0.274,11.614,8.936,21.243,20.559,21.5
		c11.607,0.241,21.235-8.961,21.492-20.575l3.676-56.682c0,0,67.155,0.201,70.026,0.201
		C447.226,386.19,464.374,369.025,464.374,347.87z" style="fill: rgb(60, 111, 153);"></path>
	<polygon class="st0" points="366.035,300.719 333.418,242.557 186.263,242.557 153.646,300.719 153.646,322.292 366.035,322.292 	
		" style="fill: rgb(60, 111, 153);"></polygon>
	<rect x="244.047" y="341.693" class="st0" width="24.71" height="87.498" style="fill: rgb(60, 111, 153);"></rect>
</g>
</svg>
